<svg width="111" height="36" viewBox="0 0 111 36" fill="none" xmlns="http://www.w3.org/2000/svg">
<path fill-rule="evenodd" clip-rule="evenodd" d="M27.3527 21.6537C27.4885 22.722 27.4885 23.8032 27.3527 24.8716C26.8915 28.1436 25.1588 31.1018 22.5305 33.1045C19.9022 35.1073 16.5902 35.9929 13.3131 35.5694C10.036 35.1458 7.05805 33.4472 5.02526 30.8421C2.99248 28.237 2.06882 24.9355 2.45466 21.6537C2.59525 20.5478 2.88413 19.4659 3.31352 18.4371C4.26715 16.1489 5.87668 14.1943 7.93932 12.8193C10.0019 11.4443 12.4254 10.7106 14.9043 10.7106C17.3832 10.7106 19.8067 11.4443 21.8693 12.8193C23.9319 14.1943 25.5415 16.1489 26.4951 18.4371H22.8949C21.9119 16.8098 20.4555 15.5213 18.7205 14.7441C16.9854 13.9668 15.0545 13.7377 13.1857 14.0874C11.317 14.4371 9.59955 15.349 8.26302 16.7011C6.92648 18.0531 6.03456 19.781 5.70649 21.6537C5.52215 22.7184 5.52215 23.8069 5.70649 24.8716C6.08576 27.0353 7.2158 28.996 8.89787 30.4089C10.5799 31.8218 12.7063 32.5963 14.903 32.5963C17.0998 32.5963 19.2261 31.8218 20.9082 30.4089C22.5903 28.996 23.7203 27.0353 24.0996 24.8716H20.8063C20.4166 26.2999 19.5217 27.5383 18.2878 28.3566C17.054 29.175 15.565 29.5177 14.0976 29.3211C12.6301 29.1245 11.2839 28.402 10.3089 27.2877C9.33401 26.1735 8.79664 24.7432 8.79664 23.2626C8.79664 21.7821 9.33401 20.3518 10.3089 19.2376C11.2839 18.1233 12.6301 17.4008 14.0976 17.2042C15.565 17.0076 17.054 17.3503 18.2878 18.1686C19.5217 18.987 20.4166 20.2253 20.8063 21.6537H27.3527ZM17.3155 24.8716C17.6737 24.334 17.842 23.6922 17.7937 23.048C17.7455 22.4038 17.4834 21.7942 17.0492 21.316C16.6149 20.8378 16.0333 20.5183 15.3968 20.4084C14.7603 20.2984 14.1052 20.4042 13.5357 20.709C12.9661 21.0138 12.5147 21.5001 12.2532 22.0908C11.9916 22.6814 11.9348 23.3425 12.0918 23.9691C12.2488 24.5957 12.6106 25.1519 13.1198 25.5493C13.6291 25.9468 14.2564 26.1628 14.9024 26.163C15.38 26.1637 15.8503 26.0461 16.2714 25.8208C16.6925 25.5955 17.0512 25.2693 17.3155 24.8716Z" fill="#3366FF"/>
<path fill-rule="evenodd" clip-rule="evenodd" d="M22.5013 3.33734L15.1891 0L7.88065 3.33734L0.572206 6.67594V10.3C0.411479 10.3446 0.269246 10.4394 0.16634 10.5707C0.0634333 10.702 0.00526007 10.8627 0.000339977 11.0294C-0.00458012 11.1962 0.0440113 11.3601 0.138998 11.4972C0.233984 11.6343 0.370375 11.7374 0.528194 11.7913L0.506817 11.863L0.232687 12.8011H1.33046L1.05633 11.863L1.03496 11.7913C1.19275 11.7372 1.32906 11.634 1.42395 11.4969C1.51883 11.3597 1.56729 11.1957 1.56223 11.029C1.55717 10.8622 1.49885 10.7015 1.39582 10.5703C1.29279 10.4392 1.15047 10.3444 0.989688 10.3V6.86707L6.66593 9.45873V11.4581C9.14725 9.66779 12.1293 8.70428 15.1891 8.70428C18.2489 8.70428 21.231 9.66779 23.7123 11.4581V9.45873L29.806 6.67594L22.5013 3.33734Z" fill="#3366FF"/>
<path d="M42.894 23.9965C41.8487 23.9965 40.9527 23.8098 40.206 23.4365C39.47 23.0525 38.8353 22.4978 38.302 21.7725L39.806 20.0765C40.3287 20.8018 40.846 21.2978 41.358 21.5645C41.8807 21.8205 42.4407 21.9485 43.038 21.9485C43.3687 21.9485 43.662 21.9005 43.918 21.8045C44.1847 21.7085 44.3927 21.5751 44.542 21.4045C44.702 21.2338 44.782 21.0365 44.782 20.8125C44.782 20.6418 44.7447 20.4871 44.67 20.3485C44.5953 20.1991 44.4887 20.0711 44.35 19.9645C44.2113 19.8471 44.046 19.7458 43.854 19.6605C43.662 19.5645 43.4487 19.4845 43.214 19.4205C42.9793 19.3565 42.7233 19.2978 42.446 19.2445C41.8487 19.1165 41.326 18.9511 40.878 18.7485C40.43 18.5458 40.0567 18.3005 39.758 18.0125C39.4593 17.7245 39.2353 17.3938 39.086 17.0205C38.9473 16.6365 38.878 16.2098 38.878 15.7405C38.878 15.0791 39.0647 14.5031 39.438 14.0125C39.8113 13.5111 40.3073 13.1218 40.926 12.8445C41.5447 12.5565 42.2273 12.4125 42.974 12.4125C43.9873 12.4125 44.8193 12.5831 45.47 12.9245C46.1313 13.2658 46.6593 13.7458 47.054 14.3645L45.518 15.8685C45.1873 15.4098 44.8087 15.0631 44.382 14.8285C43.9553 14.5938 43.4967 14.4765 43.006 14.4765C42.6647 14.4765 42.3607 14.5245 42.094 14.6205C41.838 14.7058 41.6407 14.8391 41.502 15.0205C41.3633 15.1911 41.294 15.3938 41.294 15.6285C41.294 15.8205 41.342 15.9911 41.438 16.1405C41.534 16.2898 41.6673 16.4231 41.838 16.5405C42.0193 16.6471 42.238 16.7431 42.494 16.8285C42.75 16.9138 43.0327 16.9831 43.342 17.0365C43.9287 17.1538 44.4567 17.3138 44.926 17.5165C45.3953 17.7085 45.7953 17.9431 46.126 18.2205C46.4673 18.4978 46.7287 18.8178 46.91 19.1805C47.0913 19.5431 47.182 19.9485 47.182 20.3965C47.182 21.1538 47.0007 21.7991 46.638 22.3325C46.2753 22.8658 45.774 23.2765 45.134 23.5645C44.494 23.8525 43.7473 23.9965 42.894 23.9965ZM49.302 23.8365V13.2285H51.574V23.8365H49.302ZM47.718 17.4045V15.3725H53.318V17.4045H47.718ZM57.1452 23.9965C56.5372 23.9965 56.0092 23.8631 55.5612 23.5965C55.1132 23.3191 54.7665 22.9298 54.5212 22.4285C54.2865 21.9165 54.1692 21.3085 54.1692 20.6045V15.3725H56.4412V20.1885C56.4412 20.7858 56.5799 21.2551 56.8572 21.5965C57.1452 21.9271 57.5399 22.0925 58.0412 22.0925C58.2972 22.0925 58.5265 22.0551 58.7292 21.9805C58.9425 21.8951 59.1239 21.7778 59.2732 21.6285C59.4225 21.4791 59.5399 21.3031 59.6252 21.1005C59.7105 20.8978 59.7532 20.6738 59.7532 20.4285V15.3725H62.0252V23.8365H59.8652L59.8012 22.0925L60.2012 21.9005C60.0839 22.2951 59.8705 22.6525 59.5612 22.9725C59.2625 23.2925 58.9052 23.5431 58.4892 23.7245C58.0732 23.9058 57.6252 23.9965 57.1452 23.9965ZM67.0896 23.9965C66.3536 23.9965 65.6869 23.8098 65.0896 23.4365C64.5029 23.0631 64.0389 22.5458 63.6976 21.8845C63.3669 21.2125 63.2016 20.4551 63.2016 19.6125C63.2016 18.7591 63.3669 18.0018 63.6976 17.3405C64.0389 16.6791 64.5029 16.1565 65.0896 15.7725C65.6763 15.3885 66.3429 15.1965 67.0896 15.1965C67.4843 15.1965 67.8629 15.2605 68.2256 15.3885C68.5989 15.5058 68.9296 15.6711 69.2176 15.8845C69.5056 16.0978 69.7403 16.3378 69.9216 16.6045C70.1029 16.8605 70.2096 17.1271 70.2416 17.4045L69.6656 17.5165V11.9965H71.9216V23.8365H69.7776L69.6816 21.8845L70.1296 21.9485C70.1189 22.2045 70.0283 22.4551 69.8576 22.7005C69.6869 22.9458 69.4576 23.1698 69.1696 23.3725C68.8923 23.5645 68.5723 23.7191 68.2096 23.8365C67.8576 23.9431 67.4843 23.9965 67.0896 23.9965ZM67.5856 22.1085C68.0229 22.1085 68.3963 22.0018 68.7056 21.7885C69.0256 21.5751 69.2763 21.2818 69.4576 20.9085C69.6389 20.5351 69.7296 20.1031 69.7296 19.6125C69.7296 19.1111 69.6389 18.6738 69.4576 18.3005C69.2763 17.9165 69.0256 17.6231 68.7056 17.4205C68.3963 17.2071 68.0229 17.1005 67.5856 17.1005C67.1696 17.1005 66.8016 17.2071 66.4816 17.4205C66.1616 17.6231 65.9109 17.9165 65.7296 18.3005C65.5589 18.6738 65.4736 19.1111 65.4736 19.6125C65.4736 20.1031 65.5589 20.5351 65.7296 20.9085C65.9109 21.2818 66.1616 21.5751 66.4816 21.7885C66.8016 22.0018 67.1696 22.1085 67.5856 22.1085ZM74.7713 27.5165L76.6273 23.1805L76.6593 24.5085L72.5153 15.3725H75.0913L77.1713 20.2845C77.2459 20.4551 77.3259 20.6631 77.4113 20.9085C77.4966 21.1538 77.5606 21.3885 77.6033 21.6125L77.2193 21.7725C77.2939 21.5911 77.3686 21.3831 77.4433 21.1485C77.5286 20.9138 77.6139 20.6631 77.6993 20.3965L79.4753 15.3725H82.0833L78.5313 23.8365L77.0753 27.5165H74.7713ZM83.0759 23.8365V12.6365H87.6839C88.4946 12.6365 89.2359 12.7751 89.9079 13.0525C90.5799 13.3191 91.1559 13.7031 91.6359 14.2045C92.1159 14.6951 92.4839 15.2871 92.7399 15.9805C92.9959 16.6631 93.1239 17.4151 93.1239 18.2365C93.1239 19.0685 92.9959 19.8258 92.7399 20.5085C92.4839 21.1911 92.1159 21.7831 91.6359 22.2845C91.1559 22.7751 90.5799 23.1591 89.9079 23.4365C89.2466 23.7031 88.5053 23.8365 87.6839 23.8365H83.0759ZM85.4759 22.0765L85.2199 21.6765H87.6039C88.0839 21.6765 88.5106 21.5965 88.8839 21.4365C89.2679 21.2765 89.5933 21.0471 89.8599 20.7485C90.1373 20.4391 90.3453 20.0765 90.4839 19.6605C90.6226 19.2338 90.6919 18.7591 90.6919 18.2365C90.6919 17.7138 90.6226 17.2445 90.4839 16.8285C90.3453 16.4018 90.1373 16.0391 89.8599 15.7405C89.5933 15.4311 89.2679 15.1965 88.8839 15.0365C88.5106 14.8765 88.0839 14.7965 87.6039 14.7965H85.1719L85.4759 14.4285V22.0765ZM98.345 23.9965C97.481 23.9965 96.713 23.8098 96.041 23.4365C95.369 23.0525 94.8356 22.5298 94.441 21.8685C94.057 21.2071 93.865 20.4551 93.865 19.6125C93.865 18.7591 94.057 18.0018 94.441 17.3405C94.8356 16.6685 95.369 16.1458 96.041 15.7725C96.713 15.3885 97.481 15.1965 98.345 15.1965C99.209 15.1965 99.977 15.3885 100.649 15.7725C101.321 16.1458 101.849 16.6685 102.233 17.3405C102.628 18.0018 102.825 18.7591 102.825 19.6125C102.825 20.4551 102.628 21.2071 102.233 21.8685C101.849 22.5298 101.321 23.0525 100.649 23.4365C99.977 23.8098 99.209 23.9965 98.345 23.9965ZM98.345 22.0285C98.761 22.0285 99.1343 21.9218 99.465 21.7085C99.7956 21.4951 100.052 21.2071 100.233 20.8445C100.425 20.4818 100.516 20.0711 100.505 19.6125C100.516 19.1325 100.425 18.7111 100.233 18.3485C100.052 17.9751 99.7956 17.6871 99.465 17.4845C99.1343 17.2711 98.761 17.1645 98.345 17.1645C97.929 17.1645 97.5503 17.2711 97.209 17.4845C96.8783 17.6978 96.617 17.9858 96.425 18.3485C96.2436 18.7111 96.1583 19.1325 96.169 19.6125C96.1583 20.0711 96.2436 20.4818 96.425 20.8445C96.617 21.2071 96.8783 21.4951 97.209 21.7085C97.5503 21.9218 97.929 22.0285 98.345 22.0285ZM106.833 23.9965C106.054 23.9965 105.355 23.8685 104.737 23.6125C104.129 23.3565 103.633 22.9938 103.249 22.5245L104.673 21.3085C105.003 21.6605 105.366 21.9165 105.761 22.0765C106.166 22.2258 106.577 22.3005 106.993 22.3005C107.142 22.3005 107.281 22.2845 107.409 22.2525C107.537 22.2098 107.649 22.1565 107.745 22.0925C107.841 22.0178 107.91 21.9325 107.953 21.8365C108.006 21.7405 108.033 21.6285 108.033 21.5005C108.033 21.2658 107.937 21.0845 107.745 20.9565C107.659 20.8925 107.499 20.8231 107.265 20.7485C107.041 20.6631 106.753 20.5725 106.401 20.4765C105.857 20.3378 105.398 20.1778 105.025 19.9965C104.651 19.8045 104.347 19.5858 104.113 19.3405C103.921 19.1378 103.771 18.9031 103.665 18.6365C103.569 18.3698 103.521 18.0765 103.521 17.7565C103.521 17.2445 103.67 16.7965 103.969 16.4125C104.267 16.0285 104.662 15.7298 105.153 15.5165C105.654 15.3031 106.198 15.1965 106.785 15.1965C107.222 15.1965 107.643 15.2498 108.049 15.3565C108.465 15.4631 108.849 15.6178 109.201 15.8205C109.563 16.0125 109.878 16.2418 110.145 16.5085L108.929 17.8685C108.737 17.6765 108.518 17.5111 108.273 17.3725C108.027 17.2231 107.782 17.1058 107.537 17.0205C107.291 16.9245 107.067 16.8765 106.865 16.8765C106.683 16.8765 106.518 16.8925 106.369 16.9245C106.23 16.9565 106.113 17.0098 106.017 17.0845C105.921 17.1485 105.846 17.2285 105.793 17.3245C105.75 17.4205 105.729 17.5271 105.729 17.6445C105.729 17.7618 105.755 17.8738 105.809 17.9805C105.873 18.0765 105.958 18.1671 106.065 18.2525C106.171 18.3165 106.342 18.3911 106.577 18.4765C106.822 18.5618 107.137 18.6578 107.521 18.7645C108.033 18.9031 108.465 19.0578 108.817 19.2285C109.169 19.3991 109.451 19.5965 109.665 19.8205C109.857 20.0125 109.99 20.2365 110.065 20.4925C110.15 20.7378 110.193 21.0045 110.193 21.2925C110.193 21.8151 110.043 22.2845 109.745 22.7005C109.457 23.1058 109.057 23.4258 108.545 23.6605C108.043 23.8845 107.473 23.9965 106.833 23.9965Z" fill="#3366FF"/>
</svg>
