<svg width="20" height="21" viewBox="0 0 20 21" fill="none" xmlns="http://www.w3.org/2000/svg">
<path d="M8.05294 14.8396H11.9471M10 3.17297V4.00631M15.3033 5.36967L14.714 5.95893M17.5 10.6729H16.6667M3.33338 10.6729H2.50005M5.28596 5.95893L4.6967 5.36967M7.05372 13.6193C5.42654 11.9921 5.42654 9.3539 7.05372 7.72671C8.68091 6.09953 11.3191 6.09953 12.9463 7.72671C14.5735 9.3539 14.5735 11.9921 12.9463 13.6193L12.4904 14.0752C11.963 14.6026 11.6667 15.3179 11.6667 16.0638V16.5063C11.6667 17.4268 10.9205 18.173 10 18.173C9.07953 18.173 8.33333 17.4268 8.33333 16.5063V16.0638C8.33333 15.3179 8.03704 14.6026 7.50964 14.0752L7.05372 13.6193Z" stroke="#64748B" stroke-width="1.6" stroke-linecap="round" stroke-linejoin="round"/>
</svg>
