<svg width="20" height="21" viewBox="0 0 20 21" fill="none" xmlns="http://www.w3.org/2000/svg">
<path d="M14.1667 12.3396V17.3396M11.6667 14.8396H16.6667M5.00004 9.00629H6.66671C7.58718 9.00629 8.33337 8.26009 8.33337 7.33962V5.67295C8.33337 4.75248 7.58718 4.00629 6.66671 4.00629H5.00004C4.07957 4.00629 3.33337 4.75248 3.33337 5.67295V7.33962C3.33337 8.26009 4.07957 9.00629 5.00004 9.00629ZM13.3334 9.00629H15C15.9205 9.00629 16.6667 8.26009 16.6667 7.33962V5.67295C16.6667 4.75248 15.9205 4.00629 15 4.00629H13.3334C12.4129 4.00629 11.6667 4.75248 11.6667 5.67295V7.33962C11.6667 8.26009 12.4129 9.00629 13.3334 9.00629ZM5.00004 17.3396H6.66671C7.58718 17.3396 8.33337 16.5934 8.33337 15.673V14.0063C8.33337 13.0858 7.58718 12.3396 6.66671 12.3396H5.00004C4.07957 12.3396 3.33337 13.0858 3.33337 14.0063V15.673C3.33337 16.5934 4.07957 17.3396 5.00004 17.3396Z" stroke="#64748B" stroke-width="1.5" stroke-linecap="round" stroke-linejoin="round"/>
</svg>
