<svg width="20" height="21" viewBox="0 0 20 21" fill="none" xmlns="http://www.w3.org/2000/svg">
<path d="M12.5 14.8396H16.6667L15.4959 13.6689C15.1784 13.3514 15 12.9207 15 12.4717V9.83964C15 7.66261 13.6087 5.81055 11.6667 5.12415V4.83964C11.6667 3.91917 10.9205 3.17297 10 3.17297C9.07953 3.17297 8.33334 3.91917 8.33334 4.83964V5.12415C6.39135 5.81055 5 7.66261 5 9.83964V12.4717C5 12.9207 4.82163 13.3514 4.50411 13.6689L3.33334 14.8396H7.5M12.5 14.8396V15.673C12.5 17.0537 11.3807 18.173 10 18.173C8.61929 18.173 7.5 17.0537 7.5 15.673V14.8396M12.5 14.8396H7.5" stroke="#64748B" stroke-width="1.5" stroke-linecap="round" stroke-linejoin="round"/>
</svg>
