<svg width="20" height="21" viewBox="0 0 20 21" fill="none" xmlns="http://www.w3.org/2000/svg">
<path d="M8.60386 4.27073C8.95919 2.80705 11.0408 2.80705 11.3961 4.27073C11.6257 5.21625 12.709 5.66495 13.5398 5.15868C14.8261 4.37497 16.298 5.84689 15.5143 7.13313C15.008 7.96402 15.4567 9.04729 16.4022 9.27683C17.8659 9.63216 17.8659 11.7138 16.4022 12.0691C15.4567 12.2987 15.008 13.3819 15.5143 14.2128C16.298 15.4991 14.8261 16.971 13.5398 16.1873C12.709 15.681 11.6257 16.1297 11.3961 17.0752C11.0408 18.5389 8.95919 18.5389 8.60386 17.0752C8.37431 16.1297 7.29105 15.681 6.46016 16.1873C5.17392 16.971 3.70199 15.4991 4.48571 14.2128C4.99198 13.3819 4.54327 12.2987 3.59776 12.0691C2.13408 11.7138 2.13408 9.63216 3.59776 9.27683C4.54327 9.04729 4.99198 7.96402 4.48571 7.13313C3.70199 5.84689 5.17392 4.37496 6.46015 5.15868C7.29105 5.66495 8.37431 5.21625 8.60386 4.27073Z" stroke="#64748B" stroke-width="1.5" stroke-linecap="round" stroke-linejoin="round"/>
<path d="M12.5 10.673C12.5 12.0537 11.3807 13.173 10 13.173C8.61929 13.173 7.5 12.0537 7.5 10.673C7.5 9.29226 8.61929 8.17297 10 8.17297C11.3807 8.17297 12.5 9.29226 12.5 10.673Z" stroke="#64748B" stroke-width="1.5" stroke-linecap="round" stroke-linejoin="round"/>
</svg>
